<svg version="1.1" id="Layer_1" xmlns="http://www.w3.org/2000/svg" xmlns:xlink="http://www.w3.org/1999/xlink" x="0px" y="0px"
	 width="100%" viewBox="0 0 1024 1024" enable-background="new 0 0 1024 1024" xml:space="preserve">
<path fill="#000000" opacity="1.000000" stroke="none" 
	d="
M1025.000000,799.000000 
	C1025.000000,874.255737 1025.000000,949.511475 1025.000000,1025.000000 
	C958.979309,1025.000000 892.958313,1025.000000 826.583618,1024.645264 
	C825.299011,1013.670898 825.927490,1003.091187 827.807983,992.649353 
	C828.480347,988.915894 827.334229,986.937805 824.709473,984.616089 
	C817.363525,978.118469 810.386047,971.220703 804.294800,963.483093 
	C801.965454,960.524109 800.552185,956.873047 797.751770,954.418884 
	C796.134338,954.698181 795.671387,955.875488 795.067017,956.816833 
	C788.052124,967.743652 780.418762,978.224487 771.593079,987.746582 
	C766.866516,992.846069 764.364746,998.706665 763.308899,1005.416443 
	C762.279846,1011.955933 761.108765,1018.473083 760.000000,1025.000000 
	C589.979126,1025.000000 419.958221,1025.000000 249.312042,1024.636230 
	C248.356567,1023.158569 247.861069,1022.064880 247.721909,1020.927612 
	C246.413513,1010.235107 241.381073,1002.160339 232.358185,995.919861 
	C218.810913,986.550171 209.149124,973.670654 201.534592,959.121826 
	C197.819702,952.023926 196.017532,945.560547 203.676147,939.907104 
	C204.189438,939.528076 204.472870,938.846741 204.890594,938.328003 
	C230.677032,906.300720 243.928741,869.025574 250.391418,828.984802 
	C251.284210,823.453308 253.250534,817.408508 248.236694,812.456299 
	C246.875153,811.111633 246.251724,808.476990 243.838898,808.965271 
	C241.431183,809.452515 241.603745,811.928650 241.251923,813.866211 
	C235.144638,847.501282 224.768936,879.691162 208.006668,909.589172 
	C193.151917,936.084656 174.822937,959.527466 147.940186,975.059509 
	C138.092407,980.749268 138.103180,980.774475 143.433411,990.959900 
	C149.013031,1001.621826 151.426193,1013.079102 152.000000,1025.000000 
	C124.645775,1025.000000 97.291542,1025.000000 69.367569,1024.592041 
	C65.239525,995.750183 45.456676,956.059265 32.283619,951.850098 
	C34.223698,956.439453 35.962826,960.720520 37.831230,964.944519 
	C46.444077,984.415771 54.321407,1004.143250 59.000000,1025.000000 
	C39.684410,1025.000000 20.368822,1025.000000 1.000000,1025.000000 
	C1.000000,885.645752 1.000000,746.291565 1.196162,606.191406 
	C2.805923,602.443848 4.219759,599.442383 5.633060,596.440613 
	C33.722305,536.780457 80.445747,502.775330 145.903885,494.585358 
	C150.000229,494.072845 153.406403,492.664642 156.260208,489.381409 
	C170.785156,472.670990 187.888626,458.904144 206.067215,446.404999 
	C224.921661,433.441132 245.085434,422.768005 265.423584,412.388245 
	C267.760651,411.195465 270.745911,410.572540 272.321045,406.363861 
	C264.719116,407.234558 257.874634,408.018524 250.585922,408.853333 
	C251.065689,407.791046 251.137390,407.185211 251.464706,406.972229 
	C262.917328,399.521027 271.304047,388.757782 281.117920,379.541016 
	C287.081848,373.939941 292.194672,367.555084 297.341766,361.226196 
	C299.164886,358.984467 301.233246,356.739044 299.915070,353.171112 
	C295.807770,342.053864 293.541016,330.521698 292.268036,318.735229 
	C290.563873,302.956177 291.478851,287.462860 297.159698,272.566010 
	C303.435577,256.108856 315.259125,246.623795 333.207153,245.639282 
	C336.079254,245.481720 337.188690,244.199753 337.764496,241.470001 
	C340.359070,229.169891 345.021271,217.623810 350.998566,206.589890 
	C351.538025,205.593994 352.285858,204.610809 351.244446,202.493179 
	C343.184601,206.653229 338.364746,214.038208 332.701935,220.727631 
	C332.507416,217.050644 332.635590,213.724991 333.438049,210.570877 
	C337.053436,196.360336 343.940369,183.601349 351.711182,171.340530 
	C367.193115,146.913284 386.596497,126.433060 412.264618,112.426125 
	C413.032104,112.007324 414.237335,111.717590 413.858978,109.912239 
	C405.520203,110.078369 397.566833,113.046631 387.794159,114.473129 
	C399.583557,101.041641 411.876862,90.545128 425.478760,81.553864 
	C439.217834,72.471954 455.354187,69.815422 472.361237,65.667198 
	C464.168304,59.308693 455.547485,58.656494 447.981598,55.379601 
	C505.807220,41.364613 556.831055,53.375729 600.720337,96.050301 
	C599.326477,86.881676 594.332153,80.446556 592.342712,72.736008 
	C643.692017,109.538635 673.372192,160.775986 690.832397,220.200394 
	C691.280945,221.727005 692.149841,223.261841 691.265259,225.092163 
	C690.050537,225.269058 688.816956,225.448715 687.227966,225.680145 
	C691.794434,230.829315 694.974060,236.507370 698.705444,241.766998 
	C702.492188,247.104660 706.196899,253.004913 711.846863,256.554596 
	C722.210938,263.066040 728.804443,272.174561 731.212036,283.886383 
	C735.546936,304.972748 734.523865,325.912354 727.068481,346.254272 
	C725.769653,349.798096 726.164368,352.549530 727.769653,355.683807 
	C736.680542,373.083038 743.997803,391.062897 746.952209,410.542786 
	C747.480591,414.026642 749.140076,417.432495 748.038086,421.670807 
	C740.480347,414.481110 733.253174,407.605896 726.026062,400.730713 
	C733.109558,434.367523 735.214722,467.137939 721.464661,499.177734 
	C718.933105,498.930084 720.253235,496.079865 717.250183,496.027161 
	C712.982544,517.140564 704.821289,537.090515 695.091553,556.449951 
	C727.425720,522.413025 746.513977,483.000214 743.451538,433.498383 
	C750.819824,440.278290 757.924744,444.548004 764.928833,448.992645 
	C786.541809,462.707794 806.938965,478.048370 823.365356,497.827667 
	C829.098145,504.730682 835.352966,508.776733 844.048218,509.573883 
	C846.022400,509.754883 847.985046,510.203949 849.917603,510.674774 
	C878.429688,517.620789 905.409302,528.043335 926.902527,548.782104 
	C975.076599,595.265320 991.521240,652.610596 983.691895,718.054993 
	C983.083191,723.143372 980.521790,728.438049 985.596375,733.499756 
	C996.887878,744.762695 1005.114685,758.296448 1012.605652,772.318359 
	C1017.241394,780.995544 1020.472168,790.292480 1025.000000,799.000000 
M484.915558,826.350464 
	C486.054535,826.114319 487.187531,825.843079 488.333405,825.647339 
	C507.251160,822.416260 525.193970,816.662842 540.812561,805.067139 
	C545.649353,801.476135 550.406494,797.567566 552.244812,791.548035 
	C555.792969,779.928833 557.012634,768.079407 553.922913,756.146973 
	C548.751587,736.175659 535.300903,722.393433 519.383850,710.511108 
	C518.066895,709.527954 516.066345,709.138489 515.762817,706.381348 
	C526.841980,708.135864 537.204102,710.915955 547.438843,714.281555 
	C549.183838,714.855408 551.250671,716.757751 552.890198,714.631653 
	C554.206848,712.924255 552.562195,711.166687 551.705994,709.617554 
	C541.767456,691.635681 527.812195,677.218445 511.377289,665.198730 
	C491.372345,650.568054 469.401611,639.336731 446.652466,629.721252 
	C412.362244,615.227478 377.007812,605.264587 339.273407,606.405457 
	C328.895538,606.719238 319.294281,609.096252 310.701752,615.310913 
	C285.970978,633.197754 270.352203,657.375122 261.244659,686.133118 
	C260.848389,687.384460 260.162964,688.726624 261.348724,689.878967 
	C262.882507,691.369446 264.474182,690.341553 265.984161,689.751953 
	C278.154572,684.999573 290.902069,682.651917 303.750977,680.805237 
	C307.456268,680.272705 311.245392,680.323242 315.542114,680.074890 
	C313.930695,682.850098 311.771912,683.105164 310.062897,683.992737 
	C297.294678,690.624146 285.918640,698.930908 278.463776,711.529663 
	C272.880920,720.964722 272.121307,728.294373 279.670502,737.217346 
	C282.351807,740.386597 284.616791,743.914551 286.997864,747.330322 
	C303.764313,771.382568 324.774902,790.695557 350.678314,804.596802 
	C381.921600,821.363953 415.829926,827.013367 450.697357,828.572144 
	C461.864594,829.071350 472.940216,827.403503 484.915558,826.350464 
M666.505249,628.128723 
	C634.485535,641.994629 607.739685,662.468079 586.933899,690.696960 
	C581.582458,697.957703 578.657532,704.823181 583.068604,713.486450 
	C584.330261,715.964233 584.713562,718.880920 585.574890,721.572205 
	C588.779968,731.586365 588.754395,731.423279 599.019287,729.018433 
	C604.317322,727.777222 609.677002,726.149048 616.226868,726.795959 
	C614.440002,728.698547 613.471069,729.809143 612.420654,730.836365 
	C602.264648,740.767761 595.136658,752.454773 592.847717,766.583740 
	C590.352661,781.984436 593.119873,795.657593 606.545776,805.783386 
	C614.929932,812.106567 623.974976,816.856201 634.056702,819.541260 
	C651.734680,824.249390 669.632385,825.430481 687.928101,823.821899 
	C711.242493,821.772217 733.558594,816.703552 754.281799,805.576233 
	C790.791077,785.972717 816.067444,757.492188 824.064819,715.830078 
	C827.747742,696.643677 825.057007,678.642090 811.035583,663.739075 
	C801.669983,653.784668 789.994873,647.541992 777.119751,643.410583 
	C771.949585,641.751587 766.693787,640.359619 760.536621,638.573303 
	C770.834106,633.171997 781.774109,632.567566 791.324402,629.038269 
	C791.268616,626.559998 790.135315,626.030701 789.171265,625.427734 
	C776.961060,617.790771 763.772339,613.151062 749.304260,612.388672 
	C720.681458,610.880432 693.328918,616.109192 666.505249,628.128723 
M526.645081,235.902466 
	C523.407043,234.258133 520.655701,231.336975 514.991638,231.819229 
	C526.885010,242.918472 536.133179,254.542953 541.957947,268.771027 
	C540.128601,269.182983 539.458252,268.341309 538.752869,267.691681 
	C524.298828,254.381622 506.948456,245.902267 489.126740,238.354401 
	C478.328217,233.781006 466.770691,230.612701 455.124634,231.773972 
	C433.100281,233.970093 417.465057,246.653046 406.691406,265.405243 
	C400.790985,275.675323 399.123444,287.279388 397.923828,298.935577 
	C395.230042,325.110199 402.046234,345.778870 425.726990,361.224030 
	C438.735291,369.708374 453.177216,373.588257 468.838623,370.111389 
	C469.697571,372.883698 467.855316,374.154297 466.593201,375.558746 
	C461.900665,380.780365 456.887085,385.639771 450.665192,389.081482 
	C448.967346,390.020660 446.283264,391.276123 448.785370,393.389557 
	C451.867523,395.992950 455.462006,398.910431 460.010864,396.335236 
	C467.613708,392.031158 474.777100,386.888855 479.455566,379.485138 
	C484.314850,371.795258 490.452301,365.785217 498.022125,360.996674 
	C501.794769,358.610138 505.701202,356.354614 508.461670,352.509308 
	C503.934021,349.966370 498.372742,353.099548 493.533539,349.241760 
	C499.764191,348.336151 504.904907,346.249817 509.796478,343.400909 
	C513.553650,341.212677 512.868896,338.883606 510.667145,336.087067 
	C507.873291,332.538483 504.758728,335.286774 501.961121,335.752472 
	C493.025970,337.240051 483.884705,333.316162 482.263092,325.424469 
	C480.845673,318.526550 476.773682,315.798798 471.013123,313.816223 
	C466.412231,312.232758 465.311798,312.889801 465.261871,317.755310 
	C465.145874,329.063934 474.397247,341.833221 485.468903,345.648132 
	C487.580383,346.375702 489.886261,346.757202 491.710052,348.871613 
	C489.594971,350.057098 487.761719,349.512939 486.129456,349.153107 
	C479.479309,347.687012 472.829376,346.181732 466.259949,344.394775 
	C449.088867,339.724121 438.694763,323.780396 441.249329,306.036835 
	C441.609924,303.532104 440.814270,302.179352 438.615417,301.463745 
	C436.557800,300.794098 434.438873,300.523102 432.259186,300.332672 
	C426.637512,299.841492 421.636078,302.233948 416.506195,303.681549 
	C415.782928,302.518250 416.184296,301.770782 416.517334,301.023865 
	C423.094299,286.272522 437.550354,278.644836 453.509796,281.016144 
	C464.281952,282.616730 473.783325,287.279297 483.263519,292.148071 
	C498.372986,299.907898 513.253418,308.154846 529.151917,314.260406 
	C542.684021,319.457153 544.826355,318.360107 549.363586,304.346710 
	C549.973938,302.461823 550.265808,300.469330 550.640869,298.514313 
	C550.915955,297.080658 550.728333,295.468140 552.772278,294.426361 
	C558.121033,300.422913 560.750000,307.845428 561.751343,315.517853 
	C562.446716,320.846130 565.017517,323.281464 569.363037,325.299316 
	C575.123901,327.974335 575.587524,327.761505 576.676208,321.682617 
	C578.255859,312.862457 581.755310,304.801025 586.553223,296.894196 
	C588.238037,298.283813 588.167114,299.476837 588.389221,300.587280 
	C589.667358,306.976929 591.854004,313.079254 594.421143,319.046082 
	C595.394470,321.308258 596.429016,323.270111 599.606812,321.365997 
	C606.888245,317.002838 614.236877,312.736298 621.708191,308.708832 
	C633.250916,302.486694 643.969788,294.587524 656.924011,291.194641 
	C674.952393,286.472778 688.656860,296.949707 689.176758,315.899048 
	C689.186523,316.254578 688.705444,316.623566 688.298767,317.208649 
	C685.238037,314.668304 682.305725,312.348907 678.538330,311.173279 
	C668.218506,307.953003 667.852051,308.197784 669.944458,318.808777 
	C672.564270,332.094116 665.865173,344.493683 653.369202,349.246674 
	C647.066528,351.643982 640.681763,353.825684 634.225525,356.143890 
	C635.746155,359.032501 637.947937,360.564087 640.040344,362.188293 
	C646.827820,367.457031 652.426636,373.788330 656.935486,381.085022 
	C661.477478,388.435303 669.701111,388.344818 674.728943,380.519989 
	C670.220581,377.075134 666.839172,372.617096 664.190918,367.530151 
	C662.371338,364.035095 662.459106,361.599091 666.826721,360.573212 
	C667.955139,360.308167 669.017883,359.759674 670.147583,359.504517 
	C681.063232,357.038879 687.643250,349.755859 691.859863,339.911407 
	C698.293701,324.890381 698.638672,309.251678 696.425293,293.369873 
	C694.865173,282.175049 691.066101,271.970825 684.890015,262.340332 
	C676.213196,248.810638 659.811157,244.483627 646.287781,248.297089 
	C630.052429,252.875320 614.778259,259.945435 601.598755,270.868652 
	C600.752441,271.570007 600.046448,272.693024 598.145447,272.045227 
	C600.991272,262.993011 607.385986,255.738235 611.714417,247.029068 
	C608.043823,246.249985 606.143494,248.185257 604.015747,249.231155 
	C586.103699,258.035919 568.241882,259.948792 550.102295,249.666382 
	C542.422363,245.313065 534.727600,241.001785 526.645081,235.902466 
M575.985901,542.137939 
	C595.180725,539.220886 613.788086,540.243469 632.550659,549.952026 
	C627.775330,552.847107 624.314453,555.048096 620.754700,557.075439 
	C616.981140,559.224548 615.999817,561.759949 617.696472,566.117249 
	C622.976013,579.676208 622.211853,593.143494 615.743286,606.210876 
	C614.638367,608.442932 613.210327,610.513733 611.960693,612.675842 
	C610.722229,614.818542 609.520508,616.982544 608.302673,619.137207 
	C619.988892,607.475586 631.133118,595.397827 635.351257,579.026978 
	C636.794800,573.424622 638.936890,569.807800 644.315857,567.134338 
	C653.410828,562.613831 655.359680,554.733093 650.600037,545.750854 
	C648.465332,541.722473 645.471375,538.389160 641.839172,535.629089 
	C622.412109,520.866638 599.966614,519.604492 577.059937,521.873901 
	C554.388367,524.119934 533.577148,532.561768 513.498962,542.984985 
	C507.304932,546.200500 501.166077,549.623413 494.409851,551.599304 
	C485.874573,554.095520 480.178467,551.526306 476.481537,543.488159 
	C473.464539,536.928406 473.903809,530.119873 476.000549,523.509521 
	C479.024780,513.975098 482.887329,504.714447 487.852722,496.031952 
	C494.896759,483.714661 505.432068,475.718994 519.407776,472.717102 
	C529.311768,470.589783 539.339661,469.313141 549.460693,468.470093 
	C573.837646,466.439606 597.837524,467.721344 621.731445,473.510010 
	C639.809143,477.889618 652.645447,487.574158 659.426331,505.009460 
	C660.028809,506.558563 660.758240,508.064484 661.521545,509.542511 
	C661.961182,510.393646 662.293884,511.453064 663.656677,511.531677 
	C665.908325,510.499298 665.260620,508.295685 665.667786,506.424347 
	C667.546875,497.788544 665.964844,489.143036 665.455688,480.580627 
	C664.540283,465.186646 661.058716,450.304321 652.748840,436.980469 
	C646.828613,427.488098 646.793762,427.627930 636.856079,431.875244 
	C633.200195,433.437744 629.322815,434.495911 625.515076,435.683533 
	C623.596741,436.281860 621.754456,437.876221 619.006470,436.344849 
	C620.294189,434.560181 621.398499,432.945740 622.587341,431.396149 
	C628.386597,423.837341 633.498413,415.841248 637.541626,407.213470 
	C645.351196,390.548401 636.254333,370.342804 619.262390,366.707733 
	C608.796875,364.468842 599.145264,366.625366 590.326660,372.732269 
	C588.484741,374.007782 587.063721,376.130493 584.472778,376.191162 
	C583.669617,375.210297 584.026367,374.247040 584.272095,373.293915 
	C585.573608,368.245636 584.161560,364.334564 579.976929,361.024261 
	C574.444824,356.648010 568.447144,353.133606 562.155334,350.048767 
	C561.103088,349.532898 559.983582,349.008179 558.769775,350.868958 
	C563.525574,359.093384 571.079834,366.478394 571.136475,377.321228 
	C568.557678,377.437225 567.723206,375.753754 566.512329,374.722229 
	C552.005127,362.364014 525.832886,357.820587 509.714905,373.133911 
	C502.467407,380.019623 497.136017,391.134338 503.098236,403.975861 
	C508.954010,416.588135 517.145996,426.885284 528.642212,434.640594 
	C530.152771,435.659637 532.450684,436.177856 532.303406,439.369080 
	C526.065674,438.707367 520.178589,437.058258 514.420898,435.129639 
	C503.663727,431.526245 493.765137,426.300873 487.225677,416.651306 
	C484.638489,412.833618 482.806488,413.574921 480.277771,416.041809 
	C465.457520,430.499573 453.958344,446.931030 449.742432,467.656769 
	C449.373627,469.469818 448.827698,471.375610 449.927490,473.360382 
	C474.787628,447.935272 483.358002,441.022278 489.820801,441.395996 
	C489.310425,442.195679 488.954529,442.925110 488.446014,443.525116 
	C473.675964,460.950562 464.908905,481.286285 459.838470,503.310852 
	C456.503906,517.795288 454.127472,532.467651 458.440887,547.174805 
	C465.678070,571.850830 487.097321,581.352295 510.319672,570.462952 
	C511.699646,569.815796 512.920044,568.247131 515.277344,569.373108 
	C510.566528,577.196045 502.711761,581.133728 494.523987,586.506287 
	C516.620911,585.894043 534.984924,579.956726 549.365417,563.832336 
	C543.143738,560.957520 536.244934,561.892090 528.655884,559.221008 
	C543.677979,549.760986 558.915955,544.765381 575.985901,542.137939 
M243.663681,594.283752 
	C248.594559,582.642334 251.019714,570.582520 250.720612,557.860413 
	C250.317810,540.728210 241.600296,528.873047 225.076141,523.984680 
	C214.655411,520.901917 203.998322,520.811890 193.454681,522.607300 
	C155.031158,529.150208 124.457344,548.302612 103.139648,581.082825 
	C84.710388,609.421509 76.566612,641.056519 75.495880,674.652161 
	C75.468613,675.507751 75.706734,676.302368 77.374886,676.739990 
	C86.025932,658.799072 95.763786,641.290588 108.244270,625.478577 
	C120.992943,609.326660 136.832550,597.247192 155.848785,589.226013 
	C153.087250,593.652832 149.485641,597.290955 146.827057,601.644897 
	C129.703491,629.688049 119.482819,659.637207 121.369095,692.983032 
	C121.735886,699.467224 123.710320,700.841187 129.437149,698.172058 
	C151.574600,687.854431 172.478363,675.494690 191.301819,659.866760 
	C213.055817,641.805847 231.752182,621.212158 243.663681,594.283752 
M600.286377,906.772095 
	C627.126648,910.891663 652.801697,918.609802 676.812927,931.495544 
	C678.118103,932.196045 679.502197,932.647278 681.122986,932.252930 
	C687.802246,930.628113 694.258911,928.479980 699.877625,924.384766 
	C709.259705,917.546753 712.659546,905.426819 707.430847,895.565552 
	C702.086975,885.487000 692.834045,881.061462 681.917786,879.366394 
	C660.433411,876.030396 638.813049,873.323486 617.847778,867.305481 
	C601.132080,862.507446 584.766785,856.838440 572.086060,844.047546 
	C569.593201,841.532959 567.894043,843.400452 566.162598,844.937073 
	C558.998840,851.294678 551.088562,856.448181 542.177246,860.017944 
	C520.719360,868.613831 498.197235,872.936523 475.485382,876.347839 
	C452.490601,879.801697 429.369537,882.243347 406.231476,884.573425 
	C384.313232,886.780640 362.432373,887.326904 340.509552,885.047363 
	C339.146973,884.905701 337.814026,884.504639 336.890747,885.842896 
	C335.873169,887.317749 336.569183,888.740295 337.314514,890.054565 
	C347.146057,907.391724 359.037811,922.842712 376.956635,932.621887 
	C388.423645,938.879944 400.559540,941.305908 413.554199,938.639221 
	C422.325500,936.839111 430.245178,932.963562 437.985626,928.741028 
	C463.957550,914.572937 491.853729,908.320190 521.262024,907.485474 
	C531.579895,907.192688 541.891785,906.969116 552.209839,906.941101 
	C555.229858,906.932861 557.635010,905.869507 559.820374,903.811707 
	C564.774658,899.146973 568.399353,893.683105 570.578979,887.224487 
	C571.287537,885.125000 571.175293,882.704102 572.941895,880.467163 
	C574.596741,881.998169 574.820312,883.833069 575.335693,885.474060 
	C577.191772,891.383667 579.508972,897.064575 583.318542,902.026306 
	C584.655273,903.767395 586.093689,905.348511 588.503479,905.572693 
	C592.139709,905.910950 595.769958,906.314880 600.286377,906.772095 
M66.645477,921.935669 
	C67.157982,923.687378 67.814072,925.411926 68.152702,927.196594 
	C68.830467,930.768433 71.069855,931.271484 74.072685,930.454834 
	C83.699120,927.836670 93.307335,925.184570 102.260262,920.612732 
	C142.235428,900.199036 167.049667,866.868774 182.757889,825.885742 
	C190.678452,805.220764 193.323685,783.443481 195.465500,761.602844 
	C195.863602,757.543274 193.446594,755.172241 189.432785,755.900024 
	C183.720673,756.935608 178.023514,758.108459 172.386078,759.492065 
	C142.960632,766.714294 116.018425,778.583435 94.907677,801.254333 
	C75.623886,821.963196 64.624092,846.437744 62.509617,874.614746 
	C61.336315,890.249817 62.896255,905.821106 66.645477,921.935669 
M850.357605,620.147827 
	C872.647156,643.153320 889.027405,670.156006 903.537048,698.753479 
	C907.290588,679.395203 905.448975,660.565430 900.508728,641.864685 
	C895.535339,623.038452 886.542175,605.854248 878.589233,588.093201 
	C903.532959,603.725891 922.172241,625.438843 938.915100,648.833923 
	C940.603821,647.741638 940.516724,646.793640 940.302063,645.758606 
	C933.223816,611.624084 916.884460,583.084778 889.438782,561.176270 
	C872.762085,547.864197 853.643127,540.992920 832.538696,539.508606 
	C822.559265,538.806763 812.603149,539.705750 802.739990,541.446411 
	C801.063660,541.742249 799.264832,542.020447 798.814026,543.946411 
	C798.380310,545.799744 800.114380,546.411011 801.288879,547.284241 
	C804.627014,549.766113 808.075439,552.119263 811.246765,554.799561 
	C813.777466,556.938477 816.604492,559.000732 817.861816,563.138000 
	C795.176514,556.781067 773.447205,555.188110 752.565552,567.689758 
	C790.054260,575.920715 822.671143,592.702148 850.357605,620.147827 
M954.710083,860.415100 
	C954.835144,855.727295 954.108582,851.113831 953.044006,846.596619 
	C944.137207,808.802002 921.046082,783.052795 885.730835,767.830566 
	C882.239563,766.325623 878.516602,765.281860 874.818115,764.355713 
	C871.285217,763.470947 869.227295,765.160706 869.444641,768.813232 
	C869.710266,773.276733 870.130615,777.750366 870.827332,782.165466 
	C873.374878,798.307739 878.677979,813.727661 883.391357,829.301636 
	C892.879089,860.651184 904.451233,891.041870 923.839417,917.869812 
	C927.154297,922.456665 930.332764,927.134094 934.258789,931.257263 
	C936.770569,933.895081 938.557007,933.809082 940.334839,930.502319 
	C951.968567,908.863037 957.462402,885.960083 954.710083,860.415100 
M538.611877,1007.145386 
	C542.747375,1001.261719 546.224182,995.022461 548.471436,988.171387 
	C552.904968,974.654602 553.521301,960.852844 551.695801,946.808899 
	C550.975220,941.265320 549.643372,939.832031 544.039368,940.566162 
	C528.543823,942.596008 513.219299,945.389465 498.331329,950.323975 
	C474.516693,958.217224 453.224701,969.940491 437.222595,989.881104 
	C433.557312,994.448486 433.587677,995.697937 438.428345,998.971863 
	C444.509125,1003.084534 450.982849,1006.541382 457.963013,1008.870483 
	C482.099823,1016.924377 506.697968,1015.818054 531.385986,1012.317993 
	C534.313721,1011.902954 536.644409,1010.332886 538.611877,1007.145386 
M605.808289,1011.583496 
	C610.415771,1012.190552 615.008484,1013.141602 619.633545,1013.341248 
	C634.417114,1013.979553 648.524719,1011.534790 660.800171,1002.606934 
	C668.791138,996.795227 670.841248,988.620728 666.129089,980.776123 
	C659.517090,969.768921 650.993530,960.565979 639.568665,954.274231 
	C627.852417,947.821960 615.055298,945.108459 602.065918,942.848938 
	C593.609253,941.377930 592.278503,942.750183 593.642822,951.145569 
	C596.019470,965.770447 597.282959,980.437744 594.517029,995.218933 
	C592.122864,1008.013672 592.280212,1008.043091 605.808289,1011.583496 
M520.577942,515.950317 
	C560.942444,497.537201 601.361450,493.222656 642.023682,515.252747 
	C645.035828,510.358398 644.509155,505.332611 640.003357,501.317047 
	C632.428833,494.566620 623.651489,489.924774 613.845581,487.307281 
	C590.252380,481.009613 566.503540,481.663971 542.716614,485.960724 
	C534.549194,487.436096 526.159241,488.634399 519.032471,493.212189 
	C510.177216,498.900299 505.422760,507.323822 505.561035,517.909729 
	C505.633789,523.480225 507.758911,524.224487 512.387878,521.182495 
	C514.889893,519.538269 517.428894,517.950195 520.577942,515.950317 
M793.223267,891.842102 
	C794.899170,885.933411 796.822876,880.081665 798.198364,874.103821 
	C800.875549,862.468201 803.117798,850.741211 803.595398,838.760925 
	C803.647644,837.451355 803.787781,835.955688 802.391052,835.184082 
	C800.896606,834.358398 799.834656,835.447693 798.942200,836.402283 
	C791.716187,844.131409 782.791077,849.711731 774.384705,855.951843 
	C773.016785,856.967285 771.015259,857.636292 771.310669,860.080139 
	C773.367676,861.649170 775.860168,859.546143 778.100586,860.883789 
	C779.062256,870.068542 777.539673,879.086487 775.816895,888.028748 
	C771.586975,909.984436 764.504883,931.057983 755.633850,951.556641 
	C754.913574,953.220825 753.584595,954.938721 754.958374,957.854492 
	C773.505615,939.028076 784.592651,916.617737 793.223267,891.842102 
M334.756134,363.482239 
	C335.539154,361.125153 336.142761,358.688812 337.142273,356.427399 
	C339.267883,351.618164 338.082336,348.339600 333.926880,344.905182 
	C321.315308,334.482117 320.019165,318.189087 326.112579,303.431244 
	C328.173004,298.441040 328.041046,297.996521 322.607330,297.362427 
	C321.811859,297.269592 321.023621,297.114349 319.718109,296.905975 
	C321.714783,291.382080 324.658875,287.036041 329.971191,285.115631 
	C335.129303,283.251007 339.375885,285.661346 342.935547,289.344086 
	C345.016388,291.496887 346.943817,293.797119 348.976837,295.997253 
	C352.786865,300.120514 353.994629,299.822266 355.779083,294.363098 
	C358.040466,287.444916 353.626465,276.296234 346.318024,270.739288 
	C341.437531,267.028442 336.144592,265.800781 329.910583,267.074127 
	C319.705933,269.158539 315.649048,276.864227 312.548920,285.258087 
	C307.990265,297.601044 308.231262,310.519257 310.550171,323.161041 
	C313.191864,337.562531 319.000824,350.807404 329.048523,361.808960 
	C330.350098,363.234070 331.634766,365.674469 334.756134,363.482239 
M354.693146,495.401581 
	C354.336212,493.278992 353.997284,491.153229 353.619446,489.034363 
	C351.152527,475.201935 351.665314,461.228851 351.576752,447.279694 
	C351.562897,445.098663 352.323120,442.555023 349.398834,440.617432 
	C344.736572,445.121460 344.461273,451.833557 341.033112,457.940277 
	C334.328064,443.722015 332.308807,429.143677 330.057312,414.630463 
	C318.346863,435.638641 336.470337,498.784698 356.462036,508.391998 
	C357.381775,504.078339 355.551819,500.227997 354.693146,495.401581 
M990.244812,948.258789 
	C994.472046,942.860962 997.993286,937.023254 1001.002625,930.874573 
	C1013.687622,904.956543 1014.100037,879.062500 1000.695679,853.263550 
	C999.332581,850.640076 998.216248,847.560364 994.551514,846.472229 
	C994.384277,847.490723 994.160889,848.133667 994.200195,848.760132 
	C994.283386,850.085083 994.408813,851.421448 994.682068,852.718323 
	C999.241028,874.352356 998.076965,896.006470 994.819031,917.643982 
	C993.358521,927.344116 990.975403,936.846191 987.961182,946.190063 
	C987.140015,948.735779 987.264771,948.776001 990.244812,948.258789 
M354.217072,1008.756287 
	C355.193542,1009.108521 356.111725,1010.329163 357.213440,1009.009766 
	C357.284882,1007.687988 356.533142,1006.788574 355.843903,1005.853638 
	C346.322266,992.935242 338.277527,979.211731 333.168030,963.914551 
	C332.419037,961.672180 330.940552,960.359009 328.932343,959.322266 
	C321.250061,955.356323 313.608551,951.311401 305.941376,947.315857 
	C304.782806,946.712219 303.582520,945.909607 301.546692,947.851257 
	C313.805603,972.294250 331.860016,991.941040 354.217072,1008.756287 
M627.845764,339.576294 
	C624.286072,341.573364 620.499146,342.714783 616.386230,342.420746 
	C612.898560,342.171417 611.016113,344.189362 610.263672,347.137390 
	C609.388000,350.567719 612.525024,351.262177 614.663391,352.169800 
	C623.205750,355.795471 632.819885,353.726593 639.536926,347.078094 
	C645.668945,341.008606 649.835632,334.045502 649.608765,325.080170 
	C649.546570,322.619141 648.891113,320.293671 646.246704,319.541443 
	C641.588074,318.216248 633.403748,324.479523 633.410400,329.378845 
	C633.416016,333.542664 631.940186,336.813324 627.845764,339.576294 
M326.128784,547.398987 
	C326.941193,546.979858 328.173767,547.031372 328.130127,545.644714 
	C316.951355,537.894104 287.979614,526.967529 283.569824,529.000854 
	C283.857574,529.574097 284.018707,530.264404 284.444916,530.688110 
	C289.896576,536.107788 294.508911,542.159363 298.161591,548.920044 
	C299.750793,551.861511 302.171356,551.977722 304.975128,551.299744 
	C311.729126,549.666748 318.476593,547.987976 326.128784,547.398987 
M383.328156,522.080200 
	C381.529541,518.329956 380.238800,514.301331 377.452209,510.592834 
	C375.531769,520.139343 389.968597,549.472229 398.747009,553.053101 
	C393.200531,542.622742 387.712463,533.032532 383.328156,522.080200 
M716.437927,292.199036 
	C716.432129,293.362488 716.378113,294.528320 716.435364,295.688660 
	C716.483398,296.662628 716.661255,297.630157 716.781616,298.600555 
	C717.654236,293.323425 717.654236,293.323425 716.437927,292.199036 
z"/>
<path fill="#000000" opacity="1.000000" stroke="none" 
	d="
M533.924927,411.260742 
	C529.711914,408.767120 526.037537,406.113190 523.389709,402.422394 
	C520.396423,398.249908 518.306763,393.690887 521.043396,388.511871 
	C523.654114,383.571228 528.042603,381.625763 533.432617,381.670715 
	C545.125427,381.768188 554.243286,387.096893 561.097168,396.173889 
	C567.517883,404.677216 569.744385,414.717224 570.152771,425.205017 
	C570.190979,426.185944 569.971436,427.192657 569.758850,428.162689 
	C569.584351,428.958710 569.242004,429.717987 568.598389,431.581055 
	C558.699524,421.535797 545.895508,417.538422 533.924927,411.260742 
z"/>
<path fill="#000000" opacity="1.000000" stroke="none" 
	d="
M614.395386,385.038086 
	C622.643127,387.837769 625.308105,393.490479 622.254944,401.128876 
	C620.479004,405.572144 617.503052,409.149719 613.747437,412.030518 
	C606.398071,417.667786 597.954224,421.753479 591.194519,428.671875 
	C586.899658,423.711304 587.567505,418.301483 587.662842,413.110016 
	C587.901184,400.131042 596.102661,388.930054 607.614258,385.435455 
	C609.744995,384.788666 611.820740,384.494904 614.395386,385.038086 
z"/>
</svg>